<svg xmlns="http://www.w3.org/2000/svg" width="528" height="526" viewBox="0 0 528 526">
  <path d="M 457.00 195.00 L 448.00 186.00 L 433.00 182.00 L 417.00 186.00 C 406.00 191.00 398.00 197.75 389.00 202.00 L 381.00 203.00 L 332.00 170.00 C 316.25 160.50 325.50 166.50 318.00 165.00 C 310.50 163.50 311.00 162.75 302.00 164.00 C 293.00 165.25 294.00 164.50 282.00 170.00 C 270.00 175.50 264.00 179.25 254.00 186.00 C 244.00 192.75 247.00 190.75 242.00 197.00 C 237.00 203.25 236.50 204.75 234.00 211.00 C 231.50 217.25 232.00 215.25 232.00 222.00 C 232.00 228.75 229.00 224.50 234.00 238.00 C 239.00 251.50 246.00 264.75 252.00 276.00 C 258.00 287.25 254.00 279.75 258.00 283.00 L 268.00 289.00 L 282.00 290.00 L 297.00 283.00 L 306.00 270.00 L 306.00 253.00 L 295.00 230.00 L 303.00 225.00 L 303.00 218.00 L 300.00 215.00 L 293.00 215.00 L 281.00 219.00 L 278.00 223.00 L 278.00 227.00 L 294.00 260.00 L 290.00 271.00 L 280.00 277.00 L 270.00 275.00 L 263.00 268.00 C 257.00 257.00 250.25 243.50 246.00 231.00 L 246.00 218.00 L 253.00 205.00 C 257.25 199.50 256.25 200.75 263.00 196.00 C 269.75 191.25 271.00 190.50 280.00 186.00 C 289.00 181.50 290.25 180.00 299.00 178.00 C 307.75 176.00 307.00 176.25 315.00 178.00 C 323.00 179.75 319.50 177.75 331.00 185.00 C 342.50 192.25 349.00 199.00 361.00 207.00 L 379.00 217.00 L 395.00 214.00 L 429.00 196.00 L 437.00 196.00 L 447.00 204.00 L 449.00 214.00 L 441.00 226.00 L 399.00 246.00 L 379.00 248.00 L 355.00 238.00 L 348.00 244.00 L 342.00 274.00 L 343.00 288.00 L 349.00 296.00 C 357.25 302.25 366.50 306.00 376.00 313.00 L 387.00 324.00 L 414.00 403.00 C 420.75 424.75 414.75 407.25 414.00 411.00 L 411.00 418.00 L 402.00 425.00 L 394.00 425.00 L 381.00 412.00 L 365.00 361.00 C 359.25 344.50 361.50 351.50 358.00 346.00 C 354.50 340.50 366.75 349.50 351.00 339.00 C 335.25 328.50 310.00 313.00 295.00 304.00 L 291.00 303.00 L 285.00 307.00 L 272.00 338.00 L 256.00 349.00 L 254.00 348.00 L 252.00 334.00 C 250.50 328.25 259.50 337.75 248.00 325.00 L 206.00 283.00 L 215.00 227.00 L 214.00 213.00 L 207.00 205.00 C 197.50 197.50 187.50 190.25 176.00 183.00 C 164.50 175.75 171.00 178.25 161.00 176.00 C 151.00 173.75 146.50 173.00 136.00 174.00 C 125.50 175.00 126.25 176.50 119.00 180.00 C 111.75 183.50 114.50 181.25 107.00 188.00 C 99.50 194.75 98.00 194.75 89.00 207.00 C 80.00 219.25 76.00 226.25 71.00 237.00 L 69.00 250.00 L 73.00 263.00 C 75.75 268.25 75.50 267.75 80.00 271.00 C 84.50 274.25 85.75 274.75 91.00 276.00 L 101.00 276.00 L 116.00 269.00 L 132.00 249.00 L 130.00 303.00 L 133.00 314.00 L 110.00 353.00 L 69.00 396.00 L 67.00 413.00 L 70.00 422.00 L 77.00 431.00 L 91.00 438.00 L 102.00 438.00 C 108.25 436.50 101.00 444.25 116.00 432.00 C 131.00 419.75 144.00 409.75 162.00 389.00 L 188.00 349.00 L 193.00 355.00 L 202.00 400.00 C 206.00 416.75 204.75 413.75 209.00 422.00 L 219.00 433.00 L 232.00 438.00 L 246.00 436.00 L 257.00 429.00 L 265.00 414.00 L 265.00 401.00 L 257.00 364.00 L 283.00 346.00 L 296.00 321.00 L 323.00 338.00 L 324.00 342.00 L 312.00 369.00 C 306.75 378.00 310.00 372.75 303.00 378.00 L 284.00 390.00 L 283.00 396.00 L 286.00 400.00 L 294.00 400.00 L 318.00 383.00 C 325.75 376.50 320.75 382.50 325.00 374.00 L 335.00 349.00 L 338.00 347.00 L 350.00 359.00 L 369.00 418.00 L 376.00 429.00 L 391.00 438.00 L 405.00 438.00 L 414.00 434.00 L 425.00 421.00 L 427.00 400.00 C 421.50 376.25 411.00 348.00 403.00 326.00 C 395.00 304.00 399.75 318.00 395.00 312.00 C 390.25 306.00 392.50 308.00 384.00 302.00 C 375.50 296.00 368.25 293.00 361.00 288.00 L 355.00 282.00 L 355.00 277.00 L 361.00 255.00 L 376.00 261.00 C 384.75 262.50 377.50 267.25 396.00 261.00 C 414.50 254.75 434.75 244.00 450.00 236.00 C 465.25 228.00 454.00 233.75 457.00 229.00 C 460.00 224.25 460.75 222.50 462.00 217.00 C 463.25 211.50 463.25 212.50 462.00 207.00 C 460.75 201.50 460.50 200.25 457.00 195.00 Z M 174.00 344.00 L 151.00 381.00 C 135.50 399.50 124.00 407.25 112.00 418.00 L 103.00 424.00 L 95.00 425.00 L 89.00 423.00 L 82.00 416.00 L 80.00 411.00 L 82.00 401.00 L 121.00 361.00 L 142.00 325.00 L 174.00 344.00 Z M 129.00 190.00 L 138.00 187.00 L 160.00 190.00 L 202.00 219.00 L 192.00 287.00 L 238.00 334.00 L 252.00 404.00 L 250.00 416.00 L 240.00 424.00 L 227.00 422.00 L 219.00 412.00 L 207.00 356.00 C 202.75 339.00 206.50 350.25 202.00 344.00 L 189.00 331.00 L 181.00 332.00 L 148.00 312.00 L 145.00 308.00 L 143.00 286.00 L 148.00 219.00 L 145.00 216.00 L 137.00 217.00 L 115.00 250.00 L 104.00 261.00 L 95.00 263.00 L 88.00 260.00 L 84.00 255.00 L 84.00 241.00 L 97.00 219.00 C 105.00 208.25 108.00 205.25 116.00 198.00 C 124.00 190.75 123.50 192.75 129.00 190.00 Z M 192.00 66.00 L 173.00 73.00 C 164.50 78.00 164.00 78.75 158.00 86.00 C 152.00 93.25 151.75 92.00 149.00 102.00 C 146.25 112.00 146.25 116.00 147.00 126.00 C 147.75 136.00 146.75 133.25 152.00 142.00 C 157.25 150.75 159.25 154.00 168.00 161.00 C 176.75 168.00 177.25 167.50 187.00 170.00 C 196.75 172.50 197.00 172.50 207.00 171.00 C 217.00 169.50 218.75 168.50 227.00 164.00 C 235.25 159.50 234.00 161.00 240.00 153.00 C 246.00 145.00 248.00 142.50 251.00 132.00 C 254.00 121.50 253.75 121.50 252.00 111.00 C 250.25 100.50 249.25 98.75 244.00 90.00 C 238.75 81.25 238.25 81.50 231.00 76.00 C 223.75 70.50 224.75 70.50 215.00 68.00 L 192.00 66.00 Z M 196.00 79.00 C 203.25 77.75 201.25 78.00 208.00 80.00 C 214.75 82.00 216.25 81.75 223.00 87.00 C 229.75 92.25 231.00 94.50 235.00 101.00 C 239.00 107.50 238.00 107.25 239.00 113.00 C 240.00 118.75 240.75 117.00 239.00 124.00 C 237.25 131.00 237.00 133.75 232.00 141.00 C 227.00 148.25 226.00 148.75 219.00 153.00 C 212.00 157.25 211.25 157.00 204.00 158.00 C 196.75 159.00 197.00 159.00 190.00 157.00 C 183.00 155.00 182.50 155.25 176.00 150.00 C 169.50 144.75 168.00 142.75 164.00 136.00 C 160.00 129.25 160.75 129.75 160.00 123.00 C 159.25 116.25 159.00 116.00 161.00 109.00 C 163.00 102.00 163.50 101.00 168.00 95.00 C 172.50 89.00 172.00 89.00 179.00 85.00 C 186.00 81.00 188.75 80.25 196.00 79.00 Z M 351.00 60.00 C 341.00 62.25 341.75 62.25 334.00 68.00 C 326.25 73.75 325.25 75.00 320.00 83.00 C 314.75 91.00 314.50 89.50 313.00 100.00 C 311.50 110.50 311.75 114.75 314.00 125.00 C 316.25 135.25 316.00 133.50 322.00 141.00 C 328.00 148.50 328.50 149.75 338.00 155.00 C 347.50 160.25 349.75 160.75 360.00 162.00 C 370.25 163.25 370.75 162.00 379.00 160.00 C 387.25 158.00 385.25 160.25 393.00 154.00 L 410.00 135.00 L 416.00 115.00 C 417.00 105.25 417.25 105.75 414.00 96.00 C 410.75 86.25 409.50 84.00 403.00 76.00 C 396.50 68.00 395.25 68.25 388.00 64.00 C 380.75 59.75 383.25 60.00 374.00 59.00 C 364.75 58.00 361.00 57.75 351.00 60.00 Z M 354.00 73.00 C 361.00 71.25 362.75 71.00 370.00 72.00 C 377.25 73.00 376.50 72.75 383.00 77.00 C 389.50 81.25 391.50 83.50 396.00 89.00 C 400.50 94.50 399.50 91.75 401.00 99.00 L 402.00 118.00 L 396.00 132.00 C 392.25 137.75 392.00 137.25 387.00 141.00 L 376.00 147.00 L 357.00 148.00 C 349.50 147.25 352.25 148.00 346.00 144.00 C 339.75 140.00 336.75 137.50 332.00 132.00 C 327.25 126.50 328.50 129.25 327.00 122.00 L 326.00 103.00 L 331.00 91.00 C 335.00 85.00 336.25 83.50 342.00 79.00 C 347.75 74.50 347.00 74.75 354.00 73.00 Z" fill="black" fill-rule="evenodd" stroke="none"/>
</svg>