<svg version="1.1" xmlns="http://www.w3.org/2000/svg" xmlns:xlink="http://www.w3.org/1999/xlink" width="538" height="552" viewBox="0 0 538 552"><rect width="100%" height="100%" fill="#ffffff"/><path stroke="none" fill="#000000" fill-rule="evenodd" d="M0.00,276.00L0.00,0.00L269.00,0.00L538.00,0.00L538.00,276.00L538.00,552.00L269.00,552.00L0.00,552.00L0.00,276.00ZM191.78,459.44L194.00,457.89L194.00,369.44L194.00,281.00L256.50,281.00L319.00,281.00L319.00,293.50L319.00,306.00L301.55,306.00C291.95,306.00 281.71,306.50 278.80,307.11C271.45,308.65 262.51,313.59 258.34,318.43C251.99,325.78 252.28,325.02 227.45,401.00C220.14,423.38 219.61,426.10 221.05,433.73C223.73,447.98 234.56,457.00 249.01,457.00C259.78,457.00 269.65,451.76 275.15,443.12C276.93,440.32 282.25,425.76 288.66,406.16C303.42,360.98 301.18,363.00 336.46,363.00L360.00,363.00L360.00,404.50L360.00,446.00L342.57,446.00C332.98,446.00 324.00,446.43 322.62,446.96C321.24,447.48 319.35,449.06 318.43,450.46C317.03,452.60 316.96,453.49 317.98,455.94C318.66,457.58 320.35,459.27 321.84,459.79C325.87,461.19 411.93,460.28 414.78,458.81C419.38,456.43 418.54,448.92 413.45,446.98C412.03,446.44 402.57,446.00 392.43,446.00L374.00,446.00L374.00,404.25L374.00,362.50L394.25,362.50L414.50,362.50L421.22,359.32C429.97,355.17 437.23,348.31 441.02,340.61C443.51,335.54 444.44,331.44 446.46,316.50C447.81,306.60 450.08,290.40 451.51,280.50C452.95,270.60 456.15,248.56 458.62,231.53C461.08,214.49 462.83,199.45 462.49,198.09C461.21,193.01 455.13,191.37 451.19,195.04C449.98,196.16 448.99,197.40 448.98,197.79C448.97,198.18 448.55,201.20 448.06,204.50C447.02,211.46 441.23,251.34 436.96,280.95C435.34,292.20 433.32,306.82 432.47,313.45C430.50,328.85 428.83,334.58 424.93,339.28C420.26,344.93 413.49,347.95 403.83,348.69L395.72,349.32L399.46,342.64C405.87,331.17 405.97,330.24 405.99,282.84C406.00,243.84 405.84,239.66 404.12,234.12C401.50,225.73 398.13,220.36 391.60,214.19C380.87,204.03 366.77,200.10 348.18,202.08C335.73,203.41 329.94,205.87 316.50,215.54C303.15,225.15 303.98,224.95 276.75,224.98C263.69,224.99 253.00,224.82 253.00,224.60C253.00,224.38 255.41,217.96 258.36,210.35C270.05,180.18 270.38,179.14 269.16,176.45C266.65,170.94 259.21,170.76 256.43,176.14C255.54,177.85 251.96,186.73 248.46,195.87C244.96,205.02 241.03,215.20 239.74,218.50L237.38,224.50L231.44,225.23C228.17,225.63 223.59,226.68 221.26,227.56C216.08,229.51 209.11,236.12 206.58,241.46C204.33,246.22 203.44,256.86 204.80,262.75L205.79,267.00L137.95,267.00L70.11,267.00L68.56,269.22C67.18,271.20 67.00,281.84 67.00,363.91L67.00,456.37L69.17,458.69L71.35,461.00L130.45,461.00C182.33,461.00 189.83,460.81 191.78,459.44ZM81.00,364.00L81.00,281.00L130.50,281.00L180.00,281.00L180.00,364.00L180.00,447.00L130.50,447.00L81.00,447.00L81.00,364.00ZM242.50,441.11C237.60,438.86 235.00,434.60 235.00,428.85C235.00,424.50 259.67,346.32 264.48,335.46C265.72,332.65 268.36,328.77 270.35,326.84C276.23,321.13 279.57,320.53 305.83,320.52C329.14,320.50 329.17,320.50 331.08,318.14C332.84,315.97 333.00,313.97 333.00,294.02C333.00,273.53 332.88,272.12 330.93,269.63L328.85,267.00L274.50,267.00L220.14,267.00L218.97,261.34C217.03,252.00 218.83,246.46 225.38,241.56C228.03,239.58 229.72,239.48 267.32,239.00C312.14,238.43 307.88,239.26 323.50,228.02C337.46,217.98 340.74,216.71 354.00,216.22C363.96,215.86 366.26,216.09 371.15,217.94C378.62,220.76 385.23,226.72 388.69,233.79L391.50,239.50L391.79,280.85C392.12,327.65 392.18,327.20 384.55,340.18L380.03,347.86L345.27,348.18L310.50,348.50L304.76,351.19C290.06,358.08 288.49,360.71 275.48,400.43C269.70,418.07 264.05,433.94 262.93,435.69C260.59,439.33 253.77,443.01 249.43,442.98C247.82,442.97 244.70,442.13 242.50,441.11ZM135.93,227.37C138.54,224.04 138.54,221.96 135.93,218.63L133.85,216.00L103.56,216.00C74.43,216.00 73.17,216.08 70.63,218.07C67.41,220.61 67.12,225.12 70.00,228.00C71.91,229.91 73.33,230.00 102.93,230.00L133.85,230.00L135.93,227.37ZM365.50,186.49C375.98,184.28 384.36,179.72 391.94,172.09C412.37,151.56 411.97,120.97 391.00,100.00C384.05,93.05 376.97,89.01 367.37,86.51C338.62,79.02 308.09,99.67 303.83,129.50C300.81,150.65 312.58,172.30 332.39,182.02C344.11,187.78 353.43,189.04 365.50,186.49ZM153.69,178.83C156.55,176.13 156.63,173.07 153.93,169.63L151.85,167.00L112.56,167.00C74.33,167.00 73.20,167.06 70.63,169.07C67.60,171.46 67.17,175.37 69.56,178.78L71.11,181.00L111.24,181.00C151.07,181.00 151.39,180.98 153.69,178.83ZM341.59,170.57C338.34,169.21 334.07,166.80 332.09,165.21C326.94,161.07 321.26,153.25 319.44,147.80C317.40,141.69 317.44,131.19 319.53,124.90C323.67,112.44 335.78,102.23 349.07,99.99C365.75,97.18 381.84,105.96 389.40,122.00C392.02,127.56 392.47,129.66 392.47,136.50C392.47,143.40 392.03,145.43 389.31,151.20C385.44,159.41 379.31,165.72 371.45,169.58C366.44,172.04 364.08,172.54 356.50,172.77C348.80,173.01 346.65,172.69 341.59,170.57ZM173.55,128.55C176.55,125.54 176.65,123.09 173.91,119.61L171.81,116.95L121.32,117.22L70.82,117.50L68.91,119.86C66.45,122.89 66.50,125.09 69.07,128.37L71.15,131.00L121.12,131.00L171.09,131.00L173.55,128.55Z"/></svg>